<svg xmlns="http://www.w3.org/2000/svg" width="424" height="180" viewBox="0 0 424 180"><defs><style>.a{fill:none;}.b{fill:#0f53a0;}</style></defs><title>logo</title><rect class="a" width="424" height="180"/><path class="b" d="M90.44,101.85c31.08-41,22.64-74.7,12.5-93.72a87.32,87.32,0,0,0-11.12-.74,84.21,84.21,0,0,0-31,162.53c.13-15.62,4.86-41.6,29.6-68.06"/><path class="b" d="M138.49,133.32c23.29-5.2,38-35.38,36.66-54.05s-14.37-40.21-30.46-53.21c5.09,21.58,3.76,53.79-32.14,84.09-33.82,23-34.89,50.76-32.68,64.83a84.82,84.82,0,0,0,12,.86c.44,0,.86,0,1.28,0-1-11.85,2.57-35.92,45.39-42.49"/><path class="b" d="M270.71,116.67H243l-5.42,21.55H214.64l29.11-93.75h27l29.11,93.75H276.13Zm-4.28-17.39-2-7.94C261.89,82,259.5,70.8,257,61.23h-.5c-2.27,9.83-4.79,20.79-7.18,30.12l-2,7.94Z"/><path class="b" d="M308.84,44.47h22.55v93.75H308.84Z"/><path class="b" d="M367.58,63.12H342.25V44.47h73.34V63.12H390.13v75.1H367.58Z"/></svg>